# xmcd
#
# Track frame offsets: 
#        150
#        18575
#        35565
#        54412
#        67915
#        84935
#        103900
#        122682
#        143995
#        158257
#        173990
#        189780
#
# Disc length: 2755 seconds
#
# Revision: 0
# Processed by: cddbd v1.4PL0 Copyright (c) Steve Scherf et al.
# Submitted via: ExactAudioCopy v0.90a11
#
DISCID=920ac10c
DTITLE=John Berry - Better Than A Biscuit
DYEAR=1900
DGENRE=
TTITLE0=Better Than A Biscuit
TTITLE1=Over My Shoulder
TTITLE2=I Got To Know
TTITLE3=Somebody Cares
TTITLE4=I Don't Know
TTITLE5=Right Behind The Rain
TTITLE6=In The Eyes Of A Woman
TTITLE7=Mr. Jones
TTITLE8=Crazy For The Girl
TTITLE9=We Can't Unmake Love (Duet With Wynonna)
TTITLE10=I'd Do That
TTITLE11=Over My Shoulder (The Big Remix)
EXTD=
EXTT0=
EXTT1=
EXTT2=
EXTT3=
EXTT4=
EXTT5=
EXTT6=
EXTT7=
EXTT8=
EXTT9=
EXTT10=
EXTT11=
PLAYORDER=
